<mxfile host="" modified="2020-06-12T10:13:29.877Z" agent="5.0 (Macintosh; Intel Mac OS X 10_15_4) AppleWebKit/537.36 (KHTML, like Gecko) Code/1.45.1 Chrome/78.0.3904.130 Electron/7.2.4 Safari/537.36" etag="adPb9nHjOXYtav6InnCx" version="13.1.3">
    <diagram id="6hGFLwfOUW9BJ-s0fimq" name="Page-1">
        <mxGraphModel dx="2000" dy="1954" grid="1" gridSize="10" guides="1" tooltips="1" connect="1" arrows="1" fold="1" page="1" pageScale="1" pageWidth="827" pageHeight="1169" math="0" shadow="0">
            <root>
                <mxCell id="0"/>
                <mxCell id="1" parent="0"/>
                <mxCell id="5" style="edgeStyle=orthogonalEdgeStyle;rounded=0;orthogonalLoop=1;jettySize=auto;html=1;exitX=1;exitY=0.25;exitDx=0;exitDy=0;entryX=0;entryY=0.25;entryDx=0;entryDy=0;" edge="1" parent="1" source="2" target="4">
                    <mxGeometry relative="1" as="geometry">
                        <mxPoint x="570" y="390" as="targetPoint"/>
                    </mxGeometry>
                </mxCell>
                <mxCell id="6" value="key" style="edgeLabel;html=1;align=center;verticalAlign=middle;resizable=0;points=[];" vertex="1" connectable="0" parent="5">
                    <mxGeometry x="-0.1101" y="4" relative="1" as="geometry">
                        <mxPoint y="1" as="offset"/>
                    </mxGeometry>
                </mxCell>
                <mxCell id="8" style="edgeStyle=orthogonalEdgeStyle;rounded=0;orthogonalLoop=1;jettySize=auto;html=1;exitX=1;exitY=0.5;exitDx=0;exitDy=0;entryX=0;entryY=0.5;entryDx=0;entryDy=0;" edge="1" parent="1" source="2" target="7">
                    <mxGeometry relative="1" as="geometry"/>
                </mxCell>
                <mxCell id="9" value="id" style="edgeLabel;html=1;align=center;verticalAlign=middle;resizable=0;points=[];" vertex="1" connectable="0" parent="8">
                    <mxGeometry x="-0.265" y="4" relative="1" as="geometry">
                        <mxPoint as="offset"/>
                    </mxGeometry>
                </mxCell>
                <mxCell id="11" style="edgeStyle=orthogonalEdgeStyle;rounded=0;orthogonalLoop=1;jettySize=auto;html=1;exitX=1;exitY=0.5;exitDx=0;exitDy=0;entryX=0;entryY=0.5;entryDx=0;entryDy=0;" edge="1" parent="1" source="2" target="10">
                    <mxGeometry relative="1" as="geometry"/>
                </mxCell>
                <mxCell id="12" value="mask" style="edgeLabel;html=1;align=center;verticalAlign=middle;resizable=0;points=[];" vertex="1" connectable="0" parent="11">
                    <mxGeometry x="0.433" y="1" relative="1" as="geometry">
                        <mxPoint as="offset"/>
                    </mxGeometry>
                </mxCell>
                <mxCell id="24" style="edgeStyle=orthogonalEdgeStyle;rounded=0;orthogonalLoop=1;jettySize=auto;html=1;exitX=1;exitY=0.25;exitDx=0;exitDy=0;" edge="1" parent="1" source="2" target="13">
                    <mxGeometry relative="1" as="geometry"/>
                </mxCell>
                <mxCell id="2" value="&lt;div style=&quot;color: rgb(171 , 178 , 191) ; background-color: rgb(40 , 44 , 52) ; font-family: &amp;#34;monaco&amp;#34; , &amp;#34;menlo&amp;#34; , &amp;#34;monaco&amp;#34; , &amp;#34;courier new&amp;#34; , monospace ; font-weight: normal ; font-size: 13px ; line-height: 20px&quot;&gt;&lt;div&gt;&lt;span style=&quot;color: #c678dd&quot;&gt;struct&lt;/span&gt;&lt;span style=&quot;color: #abb2bf&quot;&gt; &lt;/span&gt;&lt;span style=&quot;color: #e5c07b&quot;&gt;sw_flow&lt;/span&gt;&lt;span style=&quot;color: #abb2bf&quot;&gt; {&lt;/span&gt;&lt;/div&gt;&lt;div&gt;&lt;span style=&quot;color: #abb2bf&quot;&gt;&lt;/span&gt;&lt;span style=&quot;color: #c678dd&quot;&gt;&amp;nbsp; &amp;nbsp; struct&lt;/span&gt;&lt;span style=&quot;color: #abb2bf&quot;&gt; &lt;/span&gt;&lt;span style=&quot;color: #e5c07b&quot;&gt;rcu_head&lt;/span&gt;&lt;span style=&quot;color: #abb2bf&quot;&gt; &lt;/span&gt;&lt;span style=&quot;color: #e06c75&quot;&gt;rcu&lt;/span&gt;&lt;span style=&quot;color: #abb2bf&quot;&gt;;&lt;/span&gt;&lt;/div&gt;&lt;div&gt;&lt;span style=&quot;color: #abb2bf&quot;&gt;&lt;/span&gt;&lt;span style=&quot;color: #c678dd&quot;&gt;&amp;nbsp; &amp;nbsp; struct&lt;/span&gt;&lt;span style=&quot;color: #abb2bf&quot;&gt; {&lt;/span&gt;&lt;/div&gt;&lt;div&gt;&lt;span style=&quot;color: #abb2bf&quot;&gt;&lt;/span&gt;&lt;span style=&quot;color: #c678dd&quot;&gt;&amp;nbsp; &amp;nbsp; &amp;nbsp; &amp;nbsp; struct&lt;/span&gt;&lt;span style=&quot;color: #abb2bf&quot;&gt; &lt;/span&gt;&lt;span style=&quot;color: #e5c07b&quot;&gt;hlist_node&lt;/span&gt;&lt;span style=&quot;color: #abb2bf&quot;&gt; &lt;/span&gt;&lt;span style=&quot;color: #e06c75&quot;&gt;node&lt;/span&gt;&lt;span style=&quot;color: #abb2bf&quot;&gt;[&lt;/span&gt;&lt;span style=&quot;color: #d19a66&quot;&gt;2&lt;/span&gt;&lt;span style=&quot;color: #abb2bf&quot;&gt;];&lt;/span&gt;&lt;/div&gt;&lt;div&gt;&lt;span style=&quot;color: #abb2bf&quot;&gt;&amp;nbsp; &amp;nbsp; &amp;nbsp; &amp;nbsp; u32 hash;&lt;/span&gt;&lt;/div&gt;&lt;div&gt;&lt;span style=&quot;color: #abb2bf&quot;&gt;&amp;nbsp; &amp;nbsp; } flow_table, ufid_table;&lt;/span&gt;&lt;/div&gt;&lt;div&gt;&lt;span style=&quot;color: #abb2bf&quot;&gt;&lt;/span&gt;&lt;span style=&quot;color: #c678dd&quot;&gt;&amp;nbsp; &amp;nbsp;&amp;nbsp;&lt;/span&gt;&lt;span style=&quot;color: rgb(127 , 132 , 142) ; font-style: italic&quot;&gt;/* CPU id of the last writer on&lt;/span&gt;&lt;/div&gt;&lt;div&gt;&lt;span style=&quot;color: rgb(127 , 132 , 142) ; font-style: italic&quot;&gt;&amp;nbsp; &amp;nbsp; &amp;nbsp;* 'stats[0]'.&lt;/span&gt;&lt;/div&gt;&lt;div&gt;&lt;span style=&quot;color: rgb(127 , 132 , 142) ; font-style: italic&quot;&gt;&amp;nbsp; &amp;nbsp; &amp;nbsp;*/&lt;/span&gt;&lt;/div&gt;&lt;div&gt;&lt;span style=&quot;color: #c678dd&quot;&gt;&amp;nbsp; &amp;nbsp; int&lt;/span&gt;&lt;span style=&quot;color: #abb2bf&quot;&gt; stats_last_writer;&lt;/span&gt;&lt;span style=&quot;color: #7f848e ; font-style: italic&quot;&gt;&amp;nbsp;&lt;/span&gt;&lt;/div&gt;&lt;div&gt;&lt;span style=&quot;color: rgb(198 , 120 , 221)&quot;&gt;&amp;nbsp; &amp;nbsp; struct&lt;/span&gt; &lt;span style=&quot;color: rgb(229 , 192 , 123)&quot;&gt;sw_flow_key&lt;/span&gt; &lt;span style=&quot;color: rgb(224 , 108 , 117)&quot;&gt;key&lt;/span&gt;;&lt;/div&gt;&lt;div&gt;&lt;span style=&quot;color: #abb2bf&quot;&gt;&lt;/span&gt;&lt;span style=&quot;color: #c678dd&quot;&gt;&amp;nbsp; &amp;nbsp; struct&lt;/span&gt;&lt;span style=&quot;color: #abb2bf&quot;&gt; &lt;/span&gt;&lt;span style=&quot;color: #e5c07b&quot;&gt;sw_flow_id&lt;/span&gt;&lt;span style=&quot;color: #abb2bf&quot;&gt; &lt;/span&gt;&lt;span style=&quot;color: #e06c75&quot;&gt;id&lt;/span&gt;&lt;span style=&quot;color: #abb2bf&quot;&gt;;&lt;/span&gt;&lt;/div&gt;&lt;div&gt;&lt;span style=&quot;color: #abb2bf&quot;&gt;&lt;/span&gt;&lt;span style=&quot;color: #c678dd&quot;&gt;&amp;nbsp; &amp;nbsp; struct&lt;/span&gt;&lt;span style=&quot;color: #abb2bf&quot;&gt; &lt;/span&gt;&lt;span style=&quot;color: #e5c07b&quot;&gt;cpumask&lt;/span&gt;&lt;span style=&quot;color: #abb2bf&quot;&gt; &lt;/span&gt;&lt;span style=&quot;color: #e06c75&quot;&gt;cpu_used_mask&lt;/span&gt;&lt;span style=&quot;color: #abb2bf&quot;&gt;;&lt;/span&gt;&lt;/div&gt;&lt;div&gt;&lt;span style=&quot;color: #abb2bf&quot;&gt;&lt;/span&gt;&lt;span style=&quot;color: #c678dd&quot;&gt;&amp;nbsp; &amp;nbsp; struct&lt;/span&gt;&lt;span style=&quot;color: #abb2bf&quot;&gt; &lt;/span&gt;&lt;span style=&quot;color: #e5c07b&quot;&gt;sw_flow_mask&lt;/span&gt;&lt;span style=&quot;color: #abb2bf&quot;&gt; &lt;/span&gt;&lt;span style=&quot;color: #c678dd&quot;&gt;*&lt;/span&gt;&lt;span style=&quot;color: #e06c75&quot;&gt;mask&lt;/span&gt;&lt;span style=&quot;color: #abb2bf&quot;&gt;;&lt;/span&gt;&lt;/div&gt;&lt;div&gt;&lt;span style=&quot;color: #abb2bf&quot;&gt;&lt;/span&gt;&lt;span style=&quot;color: #c678dd&quot;&gt;&amp;nbsp; &amp;nbsp; struct&lt;/span&gt;&lt;span style=&quot;color: #abb2bf&quot;&gt; &lt;/span&gt;&lt;span style=&quot;color: #e5c07b&quot;&gt;sw_flow_actions&lt;/span&gt;&lt;span style=&quot;color: #abb2bf&quot;&gt; &lt;/span&gt;&lt;span style=&quot;color: #e06c75&quot;&gt;__rcu&lt;/span&gt;&lt;span style=&quot;color: #abb2bf&quot;&gt; &lt;/span&gt;&lt;span style=&quot;color: #c678dd&quot;&gt;*&lt;/span&gt;&lt;span style=&quot;color: #abb2bf&quot;&gt;sf_acts;&lt;/span&gt;&lt;/div&gt;&lt;div&gt;&lt;span style=&quot;color: #abb2bf&quot;&gt;&lt;/span&gt;&lt;span style=&quot;color: #c678dd&quot;&gt;&amp;nbsp; &amp;nbsp;&amp;nbsp;&lt;/span&gt;&lt;span style=&quot;color: rgb(127 , 132 , 142) ; font-style: italic&quot;&gt;/* One for each CPU. First one&lt;/span&gt;&lt;/div&gt;&lt;div&gt;&lt;span style=&quot;color: rgb(127 , 132 , 142) ; font-style: italic&quot;&gt;&amp;nbsp; &amp;nbsp; &amp;nbsp;* is allocated at flow creation time,&lt;/span&gt;&lt;/div&gt;&lt;div&gt;&lt;span style=&quot;color: rgb(127 , 132 , 142) ; font-style: italic&quot;&gt;&amp;nbsp; &amp;nbsp; &amp;nbsp;* the rest are allocated on demand&lt;/span&gt;&lt;/div&gt;&lt;div&gt;&lt;span style=&quot;color: rgb(127 , 132 , 142) ; font-style: italic&quot;&gt;&amp;nbsp; &amp;nbsp; &amp;nbsp;* while holding the 'stats[0].lock'.&lt;/span&gt;&lt;/div&gt;&lt;div&gt;&lt;span style=&quot;color: rgb(127 , 132 , 142) ; font-style: italic&quot;&gt;&amp;nbsp; &amp;nbsp; &amp;nbsp;*/&lt;/span&gt;&lt;span style=&quot;color: #c678dd&quot;&gt;&amp;nbsp; &amp;nbsp;&amp;nbsp;&lt;/span&gt;&lt;/div&gt;&lt;div&gt;&lt;span style=&quot;color: #c678dd&quot;&gt;&amp;nbsp; &amp;nbsp; struct&lt;/span&gt;&lt;span style=&quot;color: #abb2bf&quot;&gt; &lt;/span&gt;&lt;span style=&quot;color: #e5c07b&quot;&gt;sw_flow_stats&lt;/span&gt;&lt;span style=&quot;color: #abb2bf&quot;&gt; &lt;/span&gt;&lt;span style=&quot;color: #e06c75&quot;&gt;__rcu&lt;/span&gt;&lt;span style=&quot;color: #abb2bf&quot;&gt; &lt;/span&gt;&lt;span style=&quot;color: #c678dd&quot;&gt;*&lt;/span&gt;&lt;span style=&quot;color: #abb2bf&quot;&gt;stats[];&lt;/span&gt;&lt;span style=&quot;color: #7f848e ; font-style: italic&quot;&gt;&amp;nbsp;&lt;/span&gt;&lt;/div&gt;&lt;div&gt;&lt;span style=&quot;color: #abb2bf&quot;&gt;};&lt;/span&gt;&lt;/div&gt;&lt;/div&gt;" style="text;whiteSpace=wrap;html=1;" vertex="1" parent="1">
                    <mxGeometry x="20" width="330" height="450" as="geometry"/>
                </mxCell>
                <mxCell id="4" value="&lt;div style=&quot;color: rgb(171 , 178 , 191) ; background-color: rgb(40 , 44 , 52) ; font-family: &amp;#34;monaco&amp;#34; , &amp;#34;menlo&amp;#34; , &amp;#34;monaco&amp;#34; , &amp;#34;courier new&amp;#34; , monospace ; font-weight: normal ; font-size: 13px ; line-height: 20px&quot;&gt;&lt;div&gt;&lt;span style=&quot;color: #c678dd&quot;&gt;struct&lt;/span&gt;&lt;span style=&quot;color: #abb2bf&quot;&gt; &lt;/span&gt;&lt;span style=&quot;color: #e5c07b&quot;&gt;sw_flow_key&lt;/span&gt;&lt;span style=&quot;color: #abb2bf&quot;&gt; {&lt;/span&gt;&lt;/div&gt;&lt;div&gt;&lt;span style=&quot;color: #abb2bf&quot;&gt;&amp;nbsp; &amp;nbsp; u8 &lt;/span&gt;&lt;span style=&quot;color: #e06c75&quot;&gt;tun_opts&lt;/span&gt;&lt;span style=&quot;color: #abb2bf&quot;&gt;[IP_TUNNEL_OPTS_MAX];&lt;/span&gt;&lt;/div&gt;&lt;div&gt;&lt;span style=&quot;color: #abb2bf&quot;&gt;&amp;nbsp; &amp;nbsp; u8 tun_opts_len;&lt;/span&gt;&lt;/div&gt;&lt;div&gt;&lt;span style=&quot;color: #abb2bf&quot;&gt;&lt;/span&gt;&lt;span style=&quot;color: #c678dd&quot;&gt;&amp;nbsp; &amp;nbsp; struct&lt;/span&gt;&lt;span style=&quot;color: #abb2bf&quot;&gt; &lt;/span&gt;&lt;span style=&quot;color: #e5c07b&quot;&gt;ip_tunnel_key&lt;/span&gt;&lt;span style=&quot;color: #abb2bf&quot;&gt; &lt;/span&gt;&lt;span style=&quot;color: #e06c75&quot;&gt;tun_key&lt;/span&gt;&lt;span style=&quot;color: #abb2bf&quot;&gt;;&lt;/span&gt;&lt;span style=&quot;color: #7f848e ; font-style: italic&quot;&gt;   /* Encapsulating tunnel key. */&lt;/span&gt;&lt;/div&gt;&lt;div&gt;&lt;span style=&quot;color: #abb2bf&quot;&gt;&lt;/span&gt;&lt;span style=&quot;color: #c678dd&quot;&gt;&amp;nbsp; &amp;nbsp; struct&lt;/span&gt;&lt;span style=&quot;color: #abb2bf&quot;&gt; {&lt;/span&gt;&lt;/div&gt;&lt;div&gt;&lt;span style=&quot;color: #abb2bf&quot;&gt;&amp;nbsp; &amp;nbsp; &amp;nbsp; &amp;nbsp; u32 priority;&lt;/span&gt;&lt;span style=&quot;color: #7f848e ; font-style: italic&quot;&gt;   /* Packet QoS priority. */&lt;/span&gt;&lt;/div&gt;&lt;div&gt;&lt;span style=&quot;color: #abb2bf&quot;&gt;&amp;nbsp; &amp;nbsp; &amp;nbsp; &amp;nbsp; u32 skb_mark;&lt;/span&gt;&lt;span style=&quot;color: #7f848e ; font-style: italic&quot;&gt;   /* SKB mark. */&lt;/span&gt;&lt;/div&gt;&lt;div&gt;&lt;span style=&quot;color: #abb2bf&quot;&gt;&amp;nbsp; &amp;nbsp; &amp;nbsp; &amp;nbsp; u16 in_port;&lt;/span&gt;&lt;span style=&quot;color: #7f848e ; font-style: italic&quot;&gt;    /* Input switch port (or DP_MAX_PORTS). */&lt;/span&gt;&lt;/div&gt;&lt;div&gt;&lt;span style=&quot;color: #abb2bf&quot;&gt;&amp;nbsp; &amp;nbsp; } __packed phy;&lt;/span&gt;&lt;span style=&quot;color: #7f848e ; font-style: italic&quot;&gt; /* Safe when right after 'tun_key'. */&lt;/span&gt;&lt;/div&gt;&lt;div&gt;&lt;span style=&quot;color: #abb2bf&quot;&gt;&amp;nbsp; &amp;nbsp; u8 mac_proto;&lt;/span&gt;&lt;span style=&quot;color: #7f848e ; font-style: italic&quot;&gt;           /* MAC layer protocol (e.g. Ethernet). */&lt;/span&gt;&lt;/div&gt;&lt;div&gt;&lt;span style=&quot;color: #abb2bf&quot;&gt;&amp;nbsp; &amp;nbsp; u8 tun_proto;&lt;/span&gt;&lt;span style=&quot;color: #7f848e ; font-style: italic&quot;&gt;           /* Protocol of encapsulating tunnel. */&lt;/span&gt;&lt;/div&gt;&lt;div&gt;&lt;span style=&quot;color: #abb2bf&quot;&gt;&amp;nbsp; &amp;nbsp; u32 ovs_flow_hash;&lt;/span&gt;&lt;span style=&quot;color: #7f848e ; font-style: italic&quot;&gt;      /* Datapath computed hash value.  */&lt;/span&gt;&lt;/div&gt;&lt;div&gt;&lt;span style=&quot;color: #abb2bf&quot;&gt;&amp;nbsp; &amp;nbsp; u32 recirc_id;&lt;/span&gt;&lt;span style=&quot;color: #7f848e ; font-style: italic&quot;&gt;          /* Recirculation ID.  */&lt;/span&gt;&lt;/div&gt;&lt;div&gt;&lt;span style=&quot;color: #abb2bf&quot;&gt;&lt;/span&gt;&lt;span style=&quot;color: #c678dd&quot;&gt;&amp;nbsp; &amp;nbsp; struct&lt;/span&gt;&lt;span style=&quot;color: #abb2bf&quot;&gt; {&lt;/span&gt;&lt;/div&gt;&lt;div&gt;&lt;span style=&quot;color: #abb2bf&quot;&gt;&amp;nbsp; &amp;nbsp; &amp;nbsp; &amp;nbsp; u8     &lt;/span&gt;&lt;span style=&quot;color: #e06c75&quot;&gt;src&lt;/span&gt;&lt;span style=&quot;color: #abb2bf&quot;&gt;[ETH_ALEN];&lt;/span&gt;&lt;span style=&quot;color: #7f848e ; font-style: italic&quot;&gt;   /* Ethernet source address. */&lt;/span&gt;&lt;/div&gt;&lt;div&gt;&lt;span style=&quot;color: #abb2bf&quot;&gt;&amp;nbsp; &amp;nbsp; &amp;nbsp; &amp;nbsp; u8     &lt;/span&gt;&lt;span style=&quot;color: #e06c75&quot;&gt;dst&lt;/span&gt;&lt;span style=&quot;color: #abb2bf&quot;&gt;[ETH_ALEN];&lt;/span&gt;&lt;span style=&quot;color: #7f848e ; font-style: italic&quot;&gt;   /* Ethernet destination address. */&lt;/span&gt;&lt;/div&gt;&lt;div&gt;&lt;span style=&quot;color: #abb2bf&quot;&gt;&lt;/span&gt;&lt;span style=&quot;color: #c678dd&quot;&gt;&amp;nbsp; &amp;nbsp; &amp;nbsp; &amp;nbsp; struct&lt;/span&gt;&lt;span style=&quot;color: #abb2bf&quot;&gt; &lt;/span&gt;&lt;span style=&quot;color: #e5c07b&quot;&gt;vlan_head&lt;/span&gt;&lt;span style=&quot;color: #abb2bf&quot;&gt; &lt;/span&gt;&lt;span style=&quot;color: #e06c75&quot;&gt;vlan&lt;/span&gt;&lt;span style=&quot;color: #abb2bf&quot;&gt;;&lt;/span&gt;&lt;/div&gt;&lt;div&gt;&lt;span style=&quot;color: #abb2bf&quot;&gt;&lt;/span&gt;&lt;span style=&quot;color: #c678dd&quot;&gt;&amp;nbsp; &amp;nbsp; &amp;nbsp; &amp;nbsp; struct&lt;/span&gt;&lt;span style=&quot;color: #abb2bf&quot;&gt; &lt;/span&gt;&lt;span style=&quot;color: #e5c07b&quot;&gt;vlan_head&lt;/span&gt;&lt;span style=&quot;color: #abb2bf&quot;&gt; &lt;/span&gt;&lt;span style=&quot;color: #e06c75&quot;&gt;cvlan&lt;/span&gt;&lt;span style=&quot;color: #abb2bf&quot;&gt;;&lt;/span&gt;&lt;/div&gt;&lt;div&gt;&lt;span style=&quot;color: #abb2bf&quot;&gt;&amp;nbsp; &amp;nbsp; &amp;nbsp; &amp;nbsp; __be16 type;&lt;/span&gt;&lt;span style=&quot;color: #7f848e ; font-style: italic&quot;&gt;        /* Ethernet frame type. */&lt;/span&gt;&lt;/div&gt;&lt;div&gt;&lt;span style=&quot;color: #abb2bf&quot;&gt;&amp;nbsp; &amp;nbsp; } eth;&lt;/span&gt;&lt;/div&gt;&lt;div&gt;&lt;span style=&quot;color: #7f848e ; font-style: italic&quot;&gt;&amp;nbsp; &amp;nbsp; /* Filling a hole of two bytes. */&lt;/span&gt;&lt;/div&gt;&lt;div&gt;&lt;span style=&quot;color: #abb2bf&quot;&gt;&amp;nbsp; &amp;nbsp; u8 ct_state;&lt;/span&gt;&lt;/div&gt;&lt;div&gt;&lt;span style=&quot;color: #abb2bf&quot;&gt;&amp;nbsp; &amp;nbsp; u8 ct_orig_proto;&lt;/span&gt;&lt;span style=&quot;color: #7f848e ; font-style: italic&quot;&gt;       /* CT original direction tuple IP&lt;/span&gt;&lt;/div&gt;&lt;div&gt;&lt;span style=&quot;color: #7f848e ; font-style: italic&quot;&gt;&amp;nbsp; &amp;nbsp; &amp;nbsp; &amp;nbsp; &amp;nbsp; &amp;nbsp; &amp;nbsp; &amp;nbsp; &amp;nbsp; &amp;nbsp; &amp;nbsp; &amp;nbsp;* protocol.&lt;/span&gt;&lt;/div&gt;&lt;div&gt;&lt;span style=&quot;color: #7f848e ; font-style: italic&quot;&gt;&amp;nbsp; &amp;nbsp; &amp;nbsp; &amp;nbsp; &amp;nbsp; &amp;nbsp; &amp;nbsp; &amp;nbsp; &amp;nbsp; &amp;nbsp; &amp;nbsp; &amp;nbsp;*/&lt;/span&gt;&lt;/div&gt;&lt;div&gt;&lt;span style=&quot;color: #abb2bf&quot;&gt;&lt;/span&gt;&lt;span style=&quot;color: #c678dd&quot;&gt;&amp;nbsp; &amp;nbsp; union&lt;/span&gt;&lt;span style=&quot;color: #abb2bf&quot;&gt; {&lt;/span&gt;&lt;/div&gt;&lt;div&gt;&lt;span style=&quot;color: #abb2bf&quot;&gt;&lt;/span&gt;&lt;span style=&quot;color: #c678dd&quot;&gt;&amp;nbsp; &amp;nbsp; &amp;nbsp; &amp;nbsp; struct&lt;/span&gt;&lt;span style=&quot;color: #abb2bf&quot;&gt; {&lt;/span&gt;&lt;/div&gt;&lt;div&gt;&lt;span style=&quot;color: #abb2bf&quot;&gt;&amp;nbsp; &amp;nbsp; &amp;nbsp; &amp;nbsp; &amp;nbsp; &amp;nbsp; __be32 top_lse;&lt;/span&gt;&lt;span style=&quot;color: #7f848e ; font-style: italic&quot;&gt; /* top label stack entry */&lt;/span&gt;&lt;/div&gt;&lt;div&gt;&lt;span style=&quot;color: #abb2bf&quot;&gt;&amp;nbsp; &amp;nbsp; &amp;nbsp; &amp;nbsp; } mpls;&lt;/span&gt;&lt;/div&gt;&lt;div&gt;&lt;span style=&quot;color: #abb2bf&quot;&gt;&lt;/span&gt;&lt;span style=&quot;color: #c678dd&quot;&gt;&amp;nbsp; &amp;nbsp; &amp;nbsp; &amp;nbsp; struct&lt;/span&gt;&lt;span style=&quot;color: #abb2bf&quot;&gt; {&lt;/span&gt;&lt;/div&gt;&lt;div&gt;&lt;span style=&quot;color: #abb2bf&quot;&gt;&amp;nbsp; &amp;nbsp; &amp;nbsp; &amp;nbsp; &amp;nbsp; &amp;nbsp; u8     proto;&lt;/span&gt;&lt;span style=&quot;color: #7f848e ; font-style: italic&quot;&gt;   /* IP protocol or lower 8 bits of ARP opcode. */&lt;/span&gt;&lt;/div&gt;&lt;div&gt;&lt;span style=&quot;color: #abb2bf&quot;&gt;&amp;nbsp; &amp;nbsp; &amp;nbsp; &amp;nbsp; &amp;nbsp; &amp;nbsp; u8     tos;&lt;/span&gt;&lt;span style=&quot;color: #7f848e ; font-style: italic&quot;&gt;     /* IP ToS. */&lt;/span&gt;&lt;/div&gt;&lt;div&gt;&lt;span style=&quot;color: #abb2bf&quot;&gt;&amp;nbsp; &amp;nbsp; &amp;nbsp; &amp;nbsp; &amp;nbsp; &amp;nbsp; u8     ttl;&lt;/span&gt;&lt;span style=&quot;color: #7f848e ; font-style: italic&quot;&gt;     /* IP TTL/hop limit. */&lt;/span&gt;&lt;/div&gt;&lt;div&gt;&lt;span style=&quot;color: #abb2bf&quot;&gt;&amp;nbsp; &amp;nbsp; &amp;nbsp; &amp;nbsp; &amp;nbsp; &amp;nbsp; u8     frag;&lt;/span&gt;&lt;span style=&quot;color: #7f848e ; font-style: italic&quot;&gt;    /* One of OVS_FRAG_TYPE_*. */&lt;/span&gt;&lt;/div&gt;&lt;div&gt;&lt;span style=&quot;color: #abb2bf&quot;&gt;&amp;nbsp; &amp;nbsp; &amp;nbsp; &amp;nbsp; } ip;&lt;/span&gt;&lt;/div&gt;&lt;div&gt;&lt;span style=&quot;color: #abb2bf&quot;&gt;&amp;nbsp; &amp;nbsp; };&lt;/span&gt;&lt;/div&gt;&lt;div&gt;&lt;span style=&quot;color: #abb2bf&quot;&gt;&amp;nbsp; &amp;nbsp; u16 ct_zone;&lt;/span&gt;&lt;span style=&quot;color: #7f848e ; font-style: italic&quot;&gt;            /* Conntrack zone. */&lt;/span&gt;&lt;/div&gt;&lt;div&gt;&lt;span style=&quot;color: #abb2bf&quot;&gt;&lt;/span&gt;&lt;span style=&quot;color: #c678dd&quot;&gt;&amp;nbsp; &amp;nbsp; struct&lt;/span&gt;&lt;span style=&quot;color: #abb2bf&quot;&gt; {&lt;/span&gt;&lt;/div&gt;&lt;div&gt;&lt;span style=&quot;color: #abb2bf&quot;&gt;&amp;nbsp; &amp;nbsp; &amp;nbsp; &amp;nbsp; __be16 src;&lt;/span&gt;&lt;span style=&quot;color: #7f848e ; font-style: italic&quot;&gt;     /* TCP/UDP/SCTP source port. */&lt;/span&gt;&lt;/div&gt;&lt;div&gt;&lt;span style=&quot;color: #abb2bf&quot;&gt;&amp;nbsp; &amp;nbsp; &amp;nbsp; &amp;nbsp; __be16 dst;&lt;/span&gt;&lt;span style=&quot;color: #7f848e ; font-style: italic&quot;&gt;     /* TCP/UDP/SCTP destination port. */&lt;/span&gt;&lt;/div&gt;&lt;div&gt;&lt;span style=&quot;color: #abb2bf&quot;&gt;&amp;nbsp; &amp;nbsp; &amp;nbsp; &amp;nbsp; __be16 flags;&lt;/span&gt;&lt;span style=&quot;color: #7f848e ; font-style: italic&quot;&gt;       /* TCP flags. */&lt;/span&gt;&lt;/div&gt;&lt;div&gt;&lt;span style=&quot;color: #abb2bf&quot;&gt;&amp;nbsp; &amp;nbsp; } tp;&lt;/span&gt;&lt;/div&gt;&lt;div&gt;&lt;span style=&quot;color: #abb2bf&quot;&gt;&lt;/span&gt;&lt;span style=&quot;color: #c678dd&quot;&gt;&amp;nbsp; &amp;nbsp; union&lt;/span&gt;&lt;span style=&quot;color: #abb2bf&quot;&gt; {&lt;/span&gt;&lt;/div&gt;&lt;div&gt;&lt;span style=&quot;color: #abb2bf&quot;&gt;&lt;/span&gt;&lt;span style=&quot;color: #c678dd&quot;&gt;&amp;nbsp; &amp;nbsp; &amp;nbsp; &amp;nbsp; struct&lt;/span&gt;&lt;span style=&quot;color: #abb2bf&quot;&gt; {&lt;/span&gt;&lt;/div&gt;&lt;div&gt;&lt;span style=&quot;color: #abb2bf&quot;&gt;&lt;/span&gt;&lt;span style=&quot;color: #c678dd&quot;&gt;&amp;nbsp; &amp;nbsp; &amp;nbsp; &amp;nbsp; &amp;nbsp; &amp;nbsp; struct&lt;/span&gt;&lt;span style=&quot;color: #abb2bf&quot;&gt; {&lt;/span&gt;&lt;/div&gt;&lt;div&gt;&lt;span style=&quot;color: #abb2bf&quot;&gt;&amp;nbsp; &amp;nbsp; &amp;nbsp; &amp;nbsp; &amp;nbsp; &amp;nbsp; &amp;nbsp; &amp;nbsp; __be32 src;&lt;/span&gt;&lt;span style=&quot;color: #7f848e ; font-style: italic&quot;&gt; /* IP source address. */&lt;/span&gt;&lt;/div&gt;&lt;div&gt;&lt;span style=&quot;color: #abb2bf&quot;&gt;&amp;nbsp; &amp;nbsp; &amp;nbsp; &amp;nbsp; &amp;nbsp; &amp;nbsp; &amp;nbsp; &amp;nbsp; __be32 dst;&lt;/span&gt;&lt;span style=&quot;color: #7f848e ; font-style: italic&quot;&gt; /* IP destination address. */&lt;/span&gt;&lt;/div&gt;&lt;div&gt;&lt;span style=&quot;color: #abb2bf&quot;&gt;&amp;nbsp; &amp;nbsp; &amp;nbsp; &amp;nbsp; &amp;nbsp; &amp;nbsp; } addr;&lt;/span&gt;&lt;/div&gt;&lt;div&gt;&lt;span style=&quot;color: #abb2bf&quot;&gt;&lt;/span&gt;&lt;span style=&quot;color: #c678dd&quot;&gt;&amp;nbsp; &amp;nbsp; &amp;nbsp; &amp;nbsp; &amp;nbsp; &amp;nbsp; union&lt;/span&gt;&lt;span style=&quot;color: #abb2bf&quot;&gt; {&lt;/span&gt;&lt;/div&gt;&lt;div&gt;&lt;span style=&quot;color: #abb2bf&quot;&gt;&lt;/span&gt;&lt;span style=&quot;color: #c678dd&quot;&gt;&amp;nbsp; &amp;nbsp; &amp;nbsp; &amp;nbsp; &amp;nbsp; &amp;nbsp; &amp;nbsp; &amp;nbsp; struct&lt;/span&gt;&lt;span style=&quot;color: #abb2bf&quot;&gt; {&lt;/span&gt;&lt;/div&gt;&lt;div&gt;&lt;span style=&quot;color: #abb2bf&quot;&gt;&amp;nbsp; &amp;nbsp; &amp;nbsp; &amp;nbsp; &amp;nbsp; &amp;nbsp; &amp;nbsp; &amp;nbsp; &amp;nbsp; &amp;nbsp; __be32 src;&lt;/span&gt;&lt;/div&gt;&lt;div&gt;&lt;span style=&quot;color: #abb2bf&quot;&gt;&amp;nbsp; &amp;nbsp; &amp;nbsp; &amp;nbsp; &amp;nbsp; &amp;nbsp; &amp;nbsp; &amp;nbsp; &amp;nbsp; &amp;nbsp; __be32 dst;&lt;/span&gt;&lt;/div&gt;&lt;div&gt;&lt;span style=&quot;color: #abb2bf&quot;&gt;&amp;nbsp; &amp;nbsp; &amp;nbsp; &amp;nbsp; &amp;nbsp; &amp;nbsp; &amp;nbsp; &amp;nbsp; } ct_orig;&lt;/span&gt;&lt;span style=&quot;color: #7f848e ; font-style: italic&quot;&gt;  /* Conntrack original direction fields. */&lt;/span&gt;&lt;/div&gt;&lt;div&gt;&lt;span style=&quot;color: #abb2bf&quot;&gt;&lt;/span&gt;&lt;span style=&quot;color: #c678dd&quot;&gt;&amp;nbsp; &amp;nbsp; &amp;nbsp; &amp;nbsp; &amp;nbsp; &amp;nbsp; &amp;nbsp; &amp;nbsp; struct&lt;/span&gt;&lt;span style=&quot;color: #abb2bf&quot;&gt; {&lt;/span&gt;&lt;/div&gt;&lt;div&gt;&lt;span style=&quot;color: #abb2bf&quot;&gt;&amp;nbsp; &amp;nbsp; &amp;nbsp; &amp;nbsp; &amp;nbsp; &amp;nbsp; &amp;nbsp; &amp;nbsp; &amp;nbsp; &amp;nbsp; u8 &lt;/span&gt;&lt;span style=&quot;color: #e06c75&quot;&gt;sha&lt;/span&gt;&lt;span style=&quot;color: #abb2bf&quot;&gt;[ETH_ALEN];&lt;/span&gt;&lt;span style=&quot;color: #7f848e ; font-style: italic&quot;&gt;   /* ARP source hardware address. */&lt;/span&gt;&lt;/div&gt;&lt;div&gt;&lt;span style=&quot;color: #abb2bf&quot;&gt;&amp;nbsp; &amp;nbsp; &amp;nbsp; &amp;nbsp; &amp;nbsp; &amp;nbsp; &amp;nbsp; &amp;nbsp; &amp;nbsp; &amp;nbsp; u8 &lt;/span&gt;&lt;span style=&quot;color: #e06c75&quot;&gt;tha&lt;/span&gt;&lt;span style=&quot;color: #abb2bf&quot;&gt;[ETH_ALEN];&lt;/span&gt;&lt;span style=&quot;color: #7f848e ; font-style: italic&quot;&gt;   /* ARP target hardware address. */&lt;/span&gt;&lt;/div&gt;&lt;div&gt;&lt;span style=&quot;color: #abb2bf&quot;&gt;&amp;nbsp; &amp;nbsp; &amp;nbsp; &amp;nbsp; &amp;nbsp; &amp;nbsp; &amp;nbsp; &amp;nbsp; } arp;&lt;/span&gt;&lt;/div&gt;&lt;div&gt;&lt;span style=&quot;color: #abb2bf&quot;&gt;&amp;nbsp; &amp;nbsp; &amp;nbsp; &amp;nbsp; &amp;nbsp; &amp;nbsp; };&lt;/span&gt;&lt;/div&gt;&lt;div&gt;&lt;span style=&quot;color: #abb2bf&quot;&gt;&amp;nbsp; &amp;nbsp; &amp;nbsp; &amp;nbsp; } ipv4;&lt;/span&gt;&lt;/div&gt;&lt;div&gt;&lt;span style=&quot;color: #abb2bf&quot;&gt;&lt;/span&gt;&lt;span style=&quot;color: #c678dd&quot;&gt;&amp;nbsp; &amp;nbsp; &amp;nbsp; &amp;nbsp; struct&lt;/span&gt;&lt;span style=&quot;color: #abb2bf&quot;&gt; {&lt;/span&gt;&lt;/div&gt;&lt;div&gt;&lt;span style=&quot;color: #abb2bf&quot;&gt;&lt;/span&gt;&lt;span style=&quot;color: #c678dd&quot;&gt;&amp;nbsp; &amp;nbsp; &amp;nbsp; &amp;nbsp; &amp;nbsp; &amp;nbsp; struct&lt;/span&gt;&lt;span style=&quot;color: #abb2bf&quot;&gt; {&lt;/span&gt;&lt;/div&gt;&lt;div&gt;&lt;span style=&quot;color: #abb2bf&quot;&gt;&lt;/span&gt;&lt;span style=&quot;color: #c678dd&quot;&gt;&amp;nbsp; &amp;nbsp; &amp;nbsp; &amp;nbsp; &amp;nbsp; &amp;nbsp; &amp;nbsp; &amp;nbsp; struct&lt;/span&gt;&lt;span style=&quot;color: #abb2bf&quot;&gt; &lt;/span&gt;&lt;span style=&quot;color: #e5c07b&quot;&gt;in6_addr&lt;/span&gt;&lt;span style=&quot;color: #abb2bf&quot;&gt; &lt;/span&gt;&lt;span style=&quot;color: #e06c75&quot;&gt;src&lt;/span&gt;&lt;span style=&quot;color: #abb2bf&quot;&gt;;&lt;/span&gt;&lt;span style=&quot;color: #7f848e ; font-style: italic&quot;&gt;    /* IPv6 source address. */&lt;/span&gt;&lt;/div&gt;&lt;div&gt;&lt;span style=&quot;color: #abb2bf&quot;&gt;&lt;/span&gt;&lt;span style=&quot;color: #c678dd&quot;&gt;&amp;nbsp; &amp;nbsp; &amp;nbsp; &amp;nbsp; &amp;nbsp; &amp;nbsp; &amp;nbsp; &amp;nbsp; struct&lt;/span&gt;&lt;span style=&quot;color: #abb2bf&quot;&gt; &lt;/span&gt;&lt;span style=&quot;color: #e5c07b&quot;&gt;in6_addr&lt;/span&gt;&lt;span style=&quot;color: #abb2bf&quot;&gt; &lt;/span&gt;&lt;span style=&quot;color: #e06c75&quot;&gt;dst&lt;/span&gt;&lt;span style=&quot;color: #abb2bf&quot;&gt;;&lt;/span&gt;&lt;span style=&quot;color: #7f848e ; font-style: italic&quot;&gt;    /* IPv6 destination address. */&lt;/span&gt;&lt;/div&gt;&lt;div&gt;&lt;span style=&quot;color: #abb2bf&quot;&gt;&amp;nbsp; &amp;nbsp; &amp;nbsp; &amp;nbsp; &amp;nbsp; &amp;nbsp; } addr;&lt;/span&gt;&lt;/div&gt;&lt;div&gt;&lt;span style=&quot;color: #abb2bf&quot;&gt;&amp;nbsp; &amp;nbsp; &amp;nbsp; &amp;nbsp; &amp;nbsp; &amp;nbsp; __be32 label;&lt;/span&gt;&lt;span style=&quot;color: #7f848e ; font-style: italic&quot;&gt;           /* IPv6 flow label. */&lt;/span&gt;&lt;/div&gt;&lt;div&gt;&lt;span style=&quot;color: #abb2bf&quot;&gt;&lt;/span&gt;&lt;span style=&quot;color: #c678dd&quot;&gt;&amp;nbsp; &amp;nbsp; &amp;nbsp; &amp;nbsp; &amp;nbsp; &amp;nbsp; union&lt;/span&gt;&lt;span style=&quot;color: #abb2bf&quot;&gt; {&lt;/span&gt;&lt;/div&gt;&lt;div&gt;&lt;span style=&quot;color: #abb2bf&quot;&gt;&lt;/span&gt;&lt;span style=&quot;color: #c678dd&quot;&gt;&amp;nbsp; &amp;nbsp; &amp;nbsp; &amp;nbsp; &amp;nbsp; &amp;nbsp; &amp;nbsp; &amp;nbsp; struct&lt;/span&gt;&lt;span style=&quot;color: #abb2bf&quot;&gt; {&lt;/span&gt;&lt;/div&gt;&lt;div&gt;&lt;span style=&quot;color: #abb2bf&quot;&gt;&lt;/span&gt;&lt;span style=&quot;color: #c678dd&quot;&gt;&amp;nbsp; &amp;nbsp; &amp;nbsp; &amp;nbsp; &amp;nbsp; &amp;nbsp; &amp;nbsp; &amp;nbsp; &amp;nbsp; &amp;nbsp; struct&lt;/span&gt;&lt;span style=&quot;color: #abb2bf&quot;&gt; &lt;/span&gt;&lt;span style=&quot;color: #e5c07b&quot;&gt;in6_addr&lt;/span&gt;&lt;span style=&quot;color: #abb2bf&quot;&gt; &lt;/span&gt;&lt;span style=&quot;color: #e06c75&quot;&gt;src&lt;/span&gt;&lt;span style=&quot;color: #abb2bf&quot;&gt;;&lt;/span&gt;&lt;/div&gt;&lt;div&gt;&lt;span style=&quot;color: #abb2bf&quot;&gt;&lt;/span&gt;&lt;span style=&quot;color: #c678dd&quot;&gt;&amp;nbsp; &amp;nbsp; &amp;nbsp; &amp;nbsp; &amp;nbsp; &amp;nbsp; &amp;nbsp; &amp;nbsp; &amp;nbsp; &amp;nbsp; struct&lt;/span&gt;&lt;span style=&quot;color: #abb2bf&quot;&gt; &lt;/span&gt;&lt;span style=&quot;color: #e5c07b&quot;&gt;in6_addr&lt;/span&gt;&lt;span style=&quot;color: #abb2bf&quot;&gt; &lt;/span&gt;&lt;span style=&quot;color: #e06c75&quot;&gt;dst&lt;/span&gt;&lt;span style=&quot;color: #abb2bf&quot;&gt;;&lt;/span&gt;&lt;/div&gt;&lt;div&gt;&lt;span style=&quot;color: #abb2bf&quot;&gt;&amp;nbsp; &amp;nbsp; &amp;nbsp; &amp;nbsp; &amp;nbsp; &amp;nbsp; &amp;nbsp; &amp;nbsp; } ct_orig;&lt;/span&gt;&lt;span style=&quot;color: #7f848e ; font-style: italic&quot;&gt;  /* Conntrack original direction fields. */&lt;/span&gt;&lt;/div&gt;&lt;div&gt;&lt;span style=&quot;color: #abb2bf&quot;&gt;&lt;/span&gt;&lt;span style=&quot;color: #c678dd&quot;&gt;&amp;nbsp; &amp;nbsp; &amp;nbsp; &amp;nbsp; &amp;nbsp; &amp;nbsp; &amp;nbsp; &amp;nbsp; struct&lt;/span&gt;&lt;span style=&quot;color: #abb2bf&quot;&gt; {&lt;/span&gt;&lt;/div&gt;&lt;div&gt;&lt;span style=&quot;color: #abb2bf&quot;&gt;&lt;/span&gt;&lt;span style=&quot;color: #c678dd&quot;&gt;&amp;nbsp; &amp;nbsp; &amp;nbsp; &amp;nbsp; &amp;nbsp; &amp;nbsp; &amp;nbsp; &amp;nbsp; &amp;nbsp; &amp;nbsp; struct&lt;/span&gt;&lt;span style=&quot;color: #abb2bf&quot;&gt; &lt;/span&gt;&lt;span style=&quot;color: #e5c07b&quot;&gt;in6_addr&lt;/span&gt;&lt;span style=&quot;color: #abb2bf&quot;&gt; &lt;/span&gt;&lt;span style=&quot;color: #e06c75&quot;&gt;target&lt;/span&gt;&lt;span style=&quot;color: #abb2bf&quot;&gt;;&lt;/span&gt;&lt;span style=&quot;color: #7f848e ; font-style: italic&quot;&gt; /* ND target address. */&lt;/span&gt;&lt;/div&gt;&lt;div&gt;&lt;span style=&quot;color: #abb2bf&quot;&gt;&amp;nbsp; &amp;nbsp; &amp;nbsp; &amp;nbsp; &amp;nbsp; &amp;nbsp; &amp;nbsp; &amp;nbsp; &amp;nbsp; &amp;nbsp; u8 &lt;/span&gt;&lt;span style=&quot;color: #e06c75&quot;&gt;sll&lt;/span&gt;&lt;span style=&quot;color: #abb2bf&quot;&gt;[ETH_ALEN];&lt;/span&gt;&lt;span style=&quot;color: #7f848e ; font-style: italic&quot;&gt;   /* ND source link layer address. */&lt;/span&gt;&lt;/div&gt;&lt;div&gt;&lt;span style=&quot;color: #abb2bf&quot;&gt;&amp;nbsp; &amp;nbsp; &amp;nbsp; &amp;nbsp; &amp;nbsp; &amp;nbsp; &amp;nbsp; &amp;nbsp; &amp;nbsp; &amp;nbsp; u8 &lt;/span&gt;&lt;span style=&quot;color: #e06c75&quot;&gt;tll&lt;/span&gt;&lt;span style=&quot;color: #abb2bf&quot;&gt;[ETH_ALEN];&lt;/span&gt;&lt;span style=&quot;color: #7f848e ; font-style: italic&quot;&gt;   /* ND target link layer address. */&lt;/span&gt;&lt;/div&gt;&lt;div&gt;&lt;span style=&quot;color: #abb2bf&quot;&gt;&amp;nbsp; &amp;nbsp; &amp;nbsp; &amp;nbsp; &amp;nbsp; &amp;nbsp; &amp;nbsp; &amp;nbsp; } nd;&lt;/span&gt;&lt;/div&gt;&lt;div&gt;&lt;span style=&quot;color: #abb2bf&quot;&gt;&amp;nbsp; &amp;nbsp; &amp;nbsp; &amp;nbsp; &amp;nbsp; &amp;nbsp; };&lt;/span&gt;&lt;/div&gt;&lt;div&gt;&lt;span style=&quot;color: #abb2bf&quot;&gt;&amp;nbsp; &amp;nbsp; &amp;nbsp; &amp;nbsp; } ipv6;&lt;/span&gt;&lt;/div&gt;&lt;div&gt;&lt;span style=&quot;color: #abb2bf&quot;&gt;&amp;nbsp; &amp;nbsp; };&lt;/span&gt;&lt;/div&gt;&lt;div&gt;&lt;span style=&quot;color: #abb2bf&quot;&gt;&lt;/span&gt;&lt;span style=&quot;color: #c678dd&quot;&gt;&amp;nbsp; &amp;nbsp; struct&lt;/span&gt;&lt;span style=&quot;color: #abb2bf&quot;&gt; {&lt;/span&gt;&lt;/div&gt;&lt;div&gt;&lt;span style=&quot;color: #7f848e ; font-style: italic&quot;&gt;&amp;nbsp; &amp;nbsp; &amp;nbsp; &amp;nbsp; /* Connection tracking fields not packed above. */&lt;/span&gt;&lt;/div&gt;&lt;div&gt;&lt;span style=&quot;color: #abb2bf&quot;&gt;&lt;/span&gt;&lt;span style=&quot;color: #c678dd&quot;&gt;&amp;nbsp; &amp;nbsp; &amp;nbsp; &amp;nbsp; struct&lt;/span&gt;&lt;span style=&quot;color: #abb2bf&quot;&gt; {&lt;/span&gt;&lt;/div&gt;&lt;div&gt;&lt;span style=&quot;color: #abb2bf&quot;&gt;&amp;nbsp; &amp;nbsp; &amp;nbsp; &amp;nbsp; &amp;nbsp; &amp;nbsp; __be16 src;&lt;/span&gt;&lt;span style=&quot;color: #7f848e ; font-style: italic&quot;&gt; /* CT orig tuple tp src port. */&lt;/span&gt;&lt;/div&gt;&lt;div&gt;&lt;span style=&quot;color: #abb2bf&quot;&gt;&amp;nbsp; &amp;nbsp; &amp;nbsp; &amp;nbsp; &amp;nbsp; &amp;nbsp; __be16 dst;&lt;/span&gt;&lt;span style=&quot;color: #7f848e ; font-style: italic&quot;&gt; /* CT orig tuple tp dst port. */&lt;/span&gt;&lt;/div&gt;&lt;div&gt;&lt;span style=&quot;color: #abb2bf&quot;&gt;&amp;nbsp; &amp;nbsp; &amp;nbsp; &amp;nbsp; } orig_tp;&lt;/span&gt;&lt;/div&gt;&lt;div&gt;&lt;span style=&quot;color: #abb2bf&quot;&gt;&amp;nbsp; &amp;nbsp; &amp;nbsp; &amp;nbsp; u32 mark;&lt;/span&gt;&lt;/div&gt;&lt;div&gt;&lt;span style=&quot;color: #abb2bf&quot;&gt;&lt;/span&gt;&lt;span style=&quot;color: #c678dd&quot;&gt;&amp;nbsp; &amp;nbsp; &amp;nbsp; &amp;nbsp; struct&lt;/span&gt;&lt;span style=&quot;color: #abb2bf&quot;&gt; &lt;/span&gt;&lt;span style=&quot;color: #e5c07b&quot;&gt;ovs_key_ct_labels&lt;/span&gt;&lt;span style=&quot;color: #abb2bf&quot;&gt; &lt;/span&gt;&lt;span style=&quot;color: #e06c75&quot;&gt;labels&lt;/span&gt;&lt;span style=&quot;color: #abb2bf&quot;&gt;;&lt;/span&gt;&lt;/div&gt;&lt;div&gt;&lt;span style=&quot;color: #abb2bf&quot;&gt;&amp;nbsp; &amp;nbsp; } ct;&lt;/span&gt;&lt;/div&gt;&lt;div&gt;&lt;span style=&quot;color: #abb2bf&quot;&gt;}&lt;/span&gt;&lt;/div&gt;&lt;/div&gt;" style="text;whiteSpace=wrap;html=1;" vertex="1" parent="1">
                    <mxGeometry x="870" y="-16" width="580" height="1770" as="geometry"/>
                </mxCell>
                <mxCell id="23" style="edgeStyle=orthogonalEdgeStyle;rounded=0;orthogonalLoop=1;jettySize=auto;html=1;exitX=1;exitY=0.5;exitDx=0;exitDy=0;entryX=0;entryY=0.25;entryDx=0;entryDy=0;" edge="1" parent="1" source="7" target="4">
                    <mxGeometry relative="1" as="geometry">
                        <Array as="points">
                            <mxPoint x="800" y="525"/>
                            <mxPoint x="800" y="427"/>
                        </Array>
                    </mxGeometry>
                </mxCell>
                <mxCell id="7" value="&lt;div style=&quot;color: rgb(171 , 178 , 191) ; background-color: rgb(40 , 44 , 52) ; font-family: &amp;#34;monaco&amp;#34; , &amp;#34;menlo&amp;#34; , &amp;#34;monaco&amp;#34; , &amp;#34;courier new&amp;#34; , monospace ; font-weight: normal ; font-size: 13px ; line-height: 20px&quot;&gt;&lt;div&gt;&lt;span style=&quot;color: #c678dd&quot;&gt;struct&lt;/span&gt;&lt;span style=&quot;color: #abb2bf&quot;&gt; &lt;/span&gt;&lt;span style=&quot;color: #e5c07b&quot;&gt;sw_flow_id&lt;/span&gt;&lt;span style=&quot;color: #abb2bf&quot;&gt; {&lt;/span&gt;&lt;/div&gt;&lt;div&gt;&lt;span style=&quot;color: #abb2bf&quot;&gt;&amp;nbsp; &amp;nbsp; u32 ufid_len;&lt;/span&gt;&lt;/div&gt;&lt;div&gt;&lt;span style=&quot;color: #abb2bf&quot;&gt;&lt;/span&gt;&lt;span style=&quot;color: #c678dd&quot;&gt;&amp;nbsp; &amp;nbsp; union&lt;/span&gt;&lt;span style=&quot;color: #abb2bf&quot;&gt; {&lt;/span&gt;&lt;/div&gt;&lt;div&gt;&lt;span style=&quot;color: #abb2bf&quot;&gt;&amp;nbsp; &amp;nbsp; &amp;nbsp; &amp;nbsp; u32 &lt;/span&gt;&lt;span style=&quot;color: #e06c75&quot;&gt;ufid&lt;/span&gt;&lt;span style=&quot;color: #abb2bf&quot;&gt;[MAX_UFID_LENGTH &lt;/span&gt;&lt;span style=&quot;color: #c678dd&quot;&gt;/&lt;/span&gt;&lt;span style=&quot;color: #abb2bf&quot;&gt; &lt;/span&gt;&lt;span style=&quot;color: #d19a66&quot;&gt;4&lt;/span&gt;&lt;span style=&quot;color: #abb2bf&quot;&gt;];&lt;/span&gt;&lt;/div&gt;&lt;div&gt;&lt;span style=&quot;color: #abb2bf&quot;&gt;&lt;/span&gt;&lt;span style=&quot;color: #c678dd&quot;&gt;&amp;nbsp; &amp;nbsp; &amp;nbsp; &amp;nbsp; struct&lt;/span&gt;&lt;span style=&quot;color: #abb2bf&quot;&gt; &lt;/span&gt;&lt;span style=&quot;color: #e5c07b&quot;&gt;sw_flow_key&lt;/span&gt;&lt;span style=&quot;color: #abb2bf&quot;&gt; &lt;/span&gt;&lt;span style=&quot;color: #c678dd&quot;&gt;*&lt;/span&gt;&lt;span style=&quot;color: #e06c75&quot;&gt;unmasked_key&lt;/span&gt;&lt;span style=&quot;color: #abb2bf&quot;&gt;;&lt;/span&gt;&lt;/div&gt;&lt;div&gt;&lt;span style=&quot;color: #abb2bf&quot;&gt;&amp;nbsp; &amp;nbsp; };&lt;/span&gt;&lt;/div&gt;&lt;div&gt;&lt;span style=&quot;color: #abb2bf&quot;&gt;};&lt;/span&gt;&lt;/div&gt;&lt;/div&gt;" style="text;whiteSpace=wrap;html=1;" vertex="1" parent="1">
                    <mxGeometry x="450" y="450" width="330" height="150" as="geometry"/>
                </mxCell>
                <mxCell id="22" style="edgeStyle=orthogonalEdgeStyle;rounded=0;orthogonalLoop=1;jettySize=auto;html=1;exitX=1;exitY=0.5;exitDx=0;exitDy=0;entryX=0;entryY=0.25;entryDx=0;entryDy=0;" edge="1" parent="1" source="10" target="4">
                    <mxGeometry relative="1" as="geometry"/>
                </mxCell>
                <mxCell id="26" style="edgeStyle=orthogonalEdgeStyle;rounded=0;orthogonalLoop=1;jettySize=auto;html=1;exitX=0.5;exitY=1;exitDx=0;exitDy=0;entryX=0.5;entryY=0;entryDx=0;entryDy=0;" edge="1" parent="1" source="10" target="25">
                    <mxGeometry relative="1" as="geometry"/>
                </mxCell>
                <mxCell id="10" value="&lt;div style=&quot;color: rgb(171 , 178 , 191) ; background-color: rgb(40 , 44 , 52) ; font-family: &amp;#34;monaco&amp;#34; , &amp;#34;menlo&amp;#34; , &amp;#34;monaco&amp;#34; , &amp;#34;courier new&amp;#34; , monospace ; font-weight: normal ; font-size: 13px ; line-height: 20px&quot;&gt;&lt;div&gt;&lt;span style=&quot;color: #c678dd&quot;&gt;struct&lt;/span&gt;&lt;span style=&quot;color: #abb2bf&quot;&gt; &lt;/span&gt;&lt;span style=&quot;color: #e5c07b&quot;&gt;sw_flow_mask&lt;/span&gt;&lt;span style=&quot;color: #abb2bf&quot;&gt; {&lt;/span&gt;&lt;/div&gt;&lt;div&gt;&lt;span style=&quot;color: #abb2bf&quot;&gt;&lt;/span&gt;&lt;span style=&quot;color: #c678dd&quot;&gt;&amp;nbsp; &amp;nbsp; int&lt;/span&gt;&lt;span style=&quot;color: #abb2bf&quot;&gt; ref_count;&lt;/span&gt;&lt;/div&gt;&lt;div&gt;&lt;span style=&quot;color: #abb2bf&quot;&gt;&lt;/span&gt;&lt;span style=&quot;color: #c678dd&quot;&gt;&amp;nbsp; &amp;nbsp; struct&lt;/span&gt;&lt;span style=&quot;color: #abb2bf&quot;&gt; &lt;/span&gt;&lt;span style=&quot;color: #e5c07b&quot;&gt;rcu_head&lt;/span&gt;&lt;span style=&quot;color: #abb2bf&quot;&gt; &lt;/span&gt;&lt;span style=&quot;color: #e06c75&quot;&gt;rcu&lt;/span&gt;&lt;span style=&quot;color: #abb2bf&quot;&gt;;&lt;/span&gt;&lt;/div&gt;&lt;div&gt;&lt;span style=&quot;color: #abb2bf&quot;&gt;&lt;/span&gt;&lt;span style=&quot;color: #c678dd&quot;&gt;&amp;nbsp; &amp;nbsp; struct&lt;/span&gt;&lt;span style=&quot;color: #abb2bf&quot;&gt; &lt;/span&gt;&lt;span style=&quot;color: #e5c07b&quot;&gt;sw_flow_key_range&lt;/span&gt;&lt;span style=&quot;color: #abb2bf&quot;&gt; &lt;/span&gt;&lt;span style=&quot;color: #e06c75&quot;&gt;range&lt;/span&gt;&lt;span style=&quot;color: #abb2bf&quot;&gt;;&lt;/span&gt;&lt;/div&gt;&lt;div&gt;&lt;span style=&quot;color: #abb2bf&quot;&gt;&lt;/span&gt;&lt;span style=&quot;color: #c678dd&quot;&gt;&amp;nbsp; &amp;nbsp; struct&lt;/span&gt;&lt;span style=&quot;color: #abb2bf&quot;&gt; &lt;/span&gt;&lt;span style=&quot;color: #e5c07b&quot;&gt;sw_flow_key&lt;/span&gt;&lt;span style=&quot;color: #abb2bf&quot;&gt; &lt;/span&gt;&lt;span style=&quot;color: #e06c75&quot;&gt;key&lt;/span&gt;&lt;span style=&quot;color: #abb2bf&quot;&gt;;&lt;/span&gt;&lt;/div&gt;&lt;div&gt;&lt;span style=&quot;color: #abb2bf&quot;&gt;};&lt;/span&gt;&lt;/div&gt;&lt;/div&gt;" style="text;whiteSpace=wrap;html=1;" vertex="1" parent="1">
                    <mxGeometry x="450" y="630" width="280" height="130" as="geometry"/>
                </mxCell>
                <mxCell id="13" value="&lt;div style=&quot;color: rgb(171 , 178 , 191) ; background-color: rgb(40 , 44 , 52) ; font-family: &amp;#34;monaco&amp;#34; , &amp;#34;menlo&amp;#34; , &amp;#34;monaco&amp;#34; , &amp;#34;courier new&amp;#34; , monospace ; font-weight: normal ; font-size: 13px ; line-height: 20px&quot;&gt;&lt;div&gt;&lt;span style=&quot;color: #c678dd&quot;&gt;struct&lt;/span&gt;&lt;span style=&quot;color: #abb2bf&quot;&gt; &lt;/span&gt;&lt;span style=&quot;color: #e5c07b&quot;&gt;sw_flow_actions&lt;/span&gt;&lt;span style=&quot;color: #abb2bf&quot;&gt; {&lt;/span&gt;&lt;/div&gt;&lt;div&gt;&lt;span style=&quot;color: #abb2bf&quot;&gt;&lt;/span&gt;&lt;span style=&quot;color: #c678dd&quot;&gt;&amp;nbsp; &amp;nbsp; struct&lt;/span&gt;&lt;span style=&quot;color: #abb2bf&quot;&gt; &lt;/span&gt;&lt;span style=&quot;color: #e5c07b&quot;&gt;rcu_head&lt;/span&gt;&lt;span style=&quot;color: #abb2bf&quot;&gt; &lt;/span&gt;&lt;span style=&quot;color: #e06c75&quot;&gt;rcu&lt;/span&gt;&lt;span style=&quot;color: #abb2bf&quot;&gt;;&lt;/span&gt;&lt;/div&gt;&lt;div&gt;&lt;div&gt;&lt;span style=&quot;color: rgb(127 , 132 , 142) ; font-style: italic&quot;&gt;&amp;nbsp; &amp;nbsp; /* From flow_cmd_new netlink actions size */&lt;/span&gt;&lt;/div&gt;&lt;/div&gt;&lt;div&gt;&lt;span style=&quot;color: #abb2bf&quot;&gt;&lt;/span&gt;&lt;span style=&quot;color: #c678dd&quot;&gt;&amp;nbsp; &amp;nbsp; size_t&lt;/span&gt;&lt;span style=&quot;color: #abb2bf&quot;&gt; orig_len;&lt;/span&gt;&lt;span style=&quot;color: #7f848e ; font-style: italic&quot;&gt;&amp;nbsp;&lt;/span&gt;u32 actions_len;&lt;/div&gt;&lt;div&gt;&lt;span style=&quot;color: #abb2bf&quot;&gt;&lt;/span&gt;&lt;span style=&quot;color: #c678dd&quot;&gt;&amp;nbsp; &amp;nbsp; struct&lt;/span&gt;&lt;span style=&quot;color: #abb2bf&quot;&gt; &lt;/span&gt;&lt;span style=&quot;color: #e5c07b&quot;&gt;nlattr&lt;/span&gt;&lt;span style=&quot;color: #abb2bf&quot;&gt; &lt;/span&gt;&lt;span style=&quot;color: #e06c75&quot;&gt;actions&lt;/span&gt;&lt;span style=&quot;color: #abb2bf&quot;&gt;[];&lt;/span&gt;&lt;/div&gt;&lt;div&gt;&lt;span style=&quot;color: #abb2bf&quot;&gt;};&lt;/span&gt;&lt;/div&gt;&lt;/div&gt;" style="text;whiteSpace=wrap;html=1;" vertex="1" parent="1">
                    <mxGeometry x="450" y="-50" width="390" height="140" as="geometry"/>
                </mxCell>
                <mxCell id="16" style="edgeStyle=orthogonalEdgeStyle;rounded=0;orthogonalLoop=1;jettySize=auto;html=1;exitX=1;exitY=0.25;exitDx=0;exitDy=0;entryX=0;entryY=0.5;entryDx=0;entryDy=0;" edge="1" parent="1" source="14" target="15">
                    <mxGeometry relative="1" as="geometry"/>
                </mxCell>
                <mxCell id="18" style="edgeStyle=orthogonalEdgeStyle;rounded=0;orthogonalLoop=1;jettySize=auto;html=1;exitX=1;exitY=0.5;exitDx=0;exitDy=0;entryX=0;entryY=0.5;entryDx=0;entryDy=0;" edge="1" parent="1" source="14" target="17">
                    <mxGeometry relative="1" as="geometry"/>
                </mxCell>
                <mxCell id="20" style="edgeStyle=orthogonalEdgeStyle;rounded=0;orthogonalLoop=1;jettySize=auto;html=1;exitX=1;exitY=0.75;exitDx=0;exitDy=0;" edge="1" parent="1" source="14" target="19">
                    <mxGeometry relative="1" as="geometry"/>
                </mxCell>
                <mxCell id="14" value="&lt;div style=&quot;color: rgb(171 , 178 , 191) ; background-color: rgb(40 , 44 , 52) ; font-family: &amp;#34;monaco&amp;#34; , &amp;#34;menlo&amp;#34; , &amp;#34;monaco&amp;#34; , &amp;#34;courier new&amp;#34; , monospace ; font-weight: normal ; font-size: 13px ; line-height: 20px&quot;&gt;&lt;div&gt;&lt;span style=&quot;color: #c678dd&quot;&gt;struct&lt;/span&gt;&lt;span style=&quot;color: #abb2bf&quot;&gt; &lt;/span&gt;&lt;span style=&quot;color: #e5c07b&quot;&gt;flow_table&lt;/span&gt;&lt;span style=&quot;color: #abb2bf&quot;&gt; {&lt;/span&gt;&lt;/div&gt;&lt;div&gt;&lt;span style=&quot;color: #abb2bf&quot;&gt;&lt;/span&gt;&lt;span style=&quot;color: #c678dd&quot;&gt;&amp;nbsp; &amp;nbsp; struct&lt;/span&gt;&lt;span style=&quot;color: #abb2bf&quot;&gt; &lt;/span&gt;&lt;span style=&quot;color: #e5c07b&quot;&gt;table_instance&lt;/span&gt;&lt;span style=&quot;color: #abb2bf&quot;&gt; &lt;/span&gt;&lt;span style=&quot;color: #e06c75&quot;&gt;__rcu&lt;/span&gt;&lt;span style=&quot;color: #abb2bf&quot;&gt; &lt;/span&gt;&lt;span style=&quot;color: #c678dd&quot;&gt;*&lt;/span&gt;&lt;span style=&quot;color: #abb2bf&quot;&gt;ti;&lt;/span&gt;&lt;/div&gt;&lt;div&gt;&lt;span style=&quot;color: #abb2bf&quot;&gt;&lt;/span&gt;&lt;span style=&quot;color: #c678dd&quot;&gt;&amp;nbsp; &amp;nbsp; struct&lt;/span&gt;&lt;span style=&quot;color: #abb2bf&quot;&gt; &lt;/span&gt;&lt;span style=&quot;color: #e5c07b&quot;&gt;table_instance&lt;/span&gt;&lt;span style=&quot;color: #abb2bf&quot;&gt; &lt;/span&gt;&lt;span style=&quot;color: #e06c75&quot;&gt;__rcu&lt;/span&gt;&lt;span style=&quot;color: #abb2bf&quot;&gt; &lt;/span&gt;&lt;span style=&quot;color: #c678dd&quot;&gt;*&lt;/span&gt;&lt;span style=&quot;color: #abb2bf&quot;&gt;ufid_ti;&lt;/span&gt;&lt;/div&gt;&lt;div&gt;&lt;span style=&quot;color: #abb2bf&quot;&gt;&lt;/span&gt;&lt;span style=&quot;color: #c678dd&quot;&gt;&amp;nbsp; &amp;nbsp; struct&lt;/span&gt;&lt;span style=&quot;color: #abb2bf&quot;&gt; &lt;/span&gt;&lt;span style=&quot;color: #e5c07b&quot;&gt;mask_cache_entry&lt;/span&gt;&lt;span style=&quot;color: #abb2bf&quot;&gt; &lt;/span&gt;&lt;span style=&quot;color: #e06c75&quot;&gt;__percpu&lt;/span&gt;&lt;span style=&quot;color: #abb2bf&quot;&gt; &lt;/span&gt;&lt;span style=&quot;color: #c678dd&quot;&gt;*&lt;/span&gt;&lt;span style=&quot;color: #abb2bf&quot;&gt;mask_cache;&lt;/span&gt;&lt;/div&gt;&lt;div&gt;&lt;span style=&quot;color: #abb2bf&quot;&gt;&lt;/span&gt;&lt;span style=&quot;color: #c678dd&quot;&gt;&amp;nbsp; &amp;nbsp; struct&lt;/span&gt;&lt;span style=&quot;color: #abb2bf&quot;&gt; &lt;/span&gt;&lt;span style=&quot;color: #e5c07b&quot;&gt;mask_array&lt;/span&gt;&lt;span style=&quot;color: #abb2bf&quot;&gt; &lt;/span&gt;&lt;span style=&quot;color: #e06c75&quot;&gt;__rcu&lt;/span&gt;&lt;span style=&quot;color: #abb2bf&quot;&gt; &lt;/span&gt;&lt;span style=&quot;color: #c678dd&quot;&gt;*&lt;/span&gt;&lt;span style=&quot;color: #abb2bf&quot;&gt;mask_array;&lt;/span&gt;&lt;/div&gt;&lt;div&gt;&lt;span style=&quot;color: #abb2bf&quot;&gt;&lt;/span&gt;&lt;span style=&quot;color: #c678dd&quot;&gt;&amp;nbsp; &amp;nbsp; unsigned&lt;/span&gt;&lt;span style=&quot;color: #abb2bf&quot;&gt; &lt;/span&gt;&lt;span style=&quot;color: #c678dd&quot;&gt;long&lt;/span&gt;&lt;span style=&quot;color: #abb2bf&quot;&gt; last_rehash;&lt;/span&gt;&lt;/div&gt;&lt;div&gt;&lt;span style=&quot;color: #abb2bf&quot;&gt;&lt;/span&gt;&lt;span style=&quot;color: #c678dd&quot;&gt;&amp;nbsp; &amp;nbsp; unsigned&lt;/span&gt;&lt;span style=&quot;color: #abb2bf&quot;&gt; &lt;/span&gt;&lt;span style=&quot;color: #c678dd&quot;&gt;int&lt;/span&gt;&lt;span style=&quot;color: #abb2bf&quot;&gt; count;&lt;/span&gt;&lt;/div&gt;&lt;div&gt;&lt;span style=&quot;color: #abb2bf&quot;&gt;&lt;/span&gt;&lt;span style=&quot;color: #c678dd&quot;&gt;&amp;nbsp; &amp;nbsp; unsigned&lt;/span&gt;&lt;span style=&quot;color: #abb2bf&quot;&gt; &lt;/span&gt;&lt;span style=&quot;color: #c678dd&quot;&gt;int&lt;/span&gt;&lt;span style=&quot;color: #abb2bf&quot;&gt; ufid_count;&lt;/span&gt;&lt;/div&gt;&lt;div&gt;&lt;span style=&quot;color: #abb2bf&quot;&gt;};&lt;/span&gt;&lt;/div&gt;&lt;/div&gt;" style="text;whiteSpace=wrap;html=1;" vertex="1" parent="1">
                    <mxGeometry x="-470" y="679" width="390" height="190" as="geometry"/>
                </mxCell>
                <mxCell id="15" value="&lt;div style=&quot;color: rgb(171 , 178 , 191) ; background-color: rgb(40 , 44 , 52) ; font-family: &amp;#34;monaco&amp;#34; , &amp;#34;menlo&amp;#34; , &amp;#34;monaco&amp;#34; , &amp;#34;courier new&amp;#34; , monospace ; font-weight: normal ; font-size: 13px ; line-height: 20px&quot;&gt;&lt;div&gt;&lt;span style=&quot;color: #c678dd&quot;&gt;struct&lt;/span&gt;&lt;span style=&quot;color: #abb2bf&quot;&gt; &lt;/span&gt;&lt;span style=&quot;color: #e5c07b&quot;&gt;table_instance&lt;/span&gt;&lt;span style=&quot;color: #abb2bf&quot;&gt; {&lt;/span&gt;&lt;/div&gt;&lt;div&gt;&lt;span style=&quot;color: #abb2bf&quot;&gt;&lt;/span&gt;&lt;span style=&quot;color: #c678dd&quot;&gt;&amp;nbsp; &amp;nbsp; struct&lt;/span&gt;&lt;span style=&quot;color: #abb2bf&quot;&gt; &lt;/span&gt;&lt;span style=&quot;color: #e5c07b&quot;&gt;hlist_head&lt;/span&gt;&lt;span style=&quot;color: #abb2bf&quot;&gt; &lt;/span&gt;&lt;span style=&quot;color: #c678dd&quot;&gt;*&lt;/span&gt;&lt;span style=&quot;color: #e06c75&quot;&gt;buckets&lt;/span&gt;&lt;span style=&quot;color: #abb2bf&quot;&gt;;&lt;/span&gt;&lt;/div&gt;&lt;div&gt;&lt;span style=&quot;color: #abb2bf&quot;&gt;&lt;/span&gt;&lt;span style=&quot;color: #c678dd&quot;&gt;&amp;nbsp; &amp;nbsp; unsigned&lt;/span&gt;&lt;span style=&quot;color: #abb2bf&quot;&gt; &lt;/span&gt;&lt;span style=&quot;color: #c678dd&quot;&gt;int&lt;/span&gt;&lt;span style=&quot;color: #abb2bf&quot;&gt; n_buckets;&lt;/span&gt;&lt;/div&gt;&lt;div&gt;&lt;span style=&quot;color: #abb2bf&quot;&gt;&lt;/span&gt;&lt;span style=&quot;color: #c678dd&quot;&gt;&amp;nbsp; &amp;nbsp; struct&lt;/span&gt;&lt;span style=&quot;color: #abb2bf&quot;&gt; &lt;/span&gt;&lt;span style=&quot;color: #e5c07b&quot;&gt;rcu_head&lt;/span&gt;&lt;span style=&quot;color: #abb2bf&quot;&gt; &lt;/span&gt;&lt;span style=&quot;color: #e06c75&quot;&gt;rcu&lt;/span&gt;&lt;span style=&quot;color: #abb2bf&quot;&gt;;&lt;/span&gt;&lt;/div&gt;&lt;div&gt;&lt;span style=&quot;color: #abb2bf&quot;&gt;&lt;/span&gt;&lt;span style=&quot;color: #c678dd&quot;&gt;&amp;nbsp; &amp;nbsp; int&lt;/span&gt;&lt;span style=&quot;color: #abb2bf&quot;&gt; node_ver;&lt;/span&gt;&lt;/div&gt;&lt;div&gt;&lt;span style=&quot;color: #abb2bf&quot;&gt;&amp;nbsp; &amp;nbsp; u32 hash_seed;&lt;/span&gt;&lt;/div&gt;&lt;div&gt;&lt;span style=&quot;color: #abb2bf&quot;&gt;&lt;/span&gt;&lt;span style=&quot;color: #c678dd&quot;&gt;&amp;nbsp; &amp;nbsp; bool&lt;/span&gt;&lt;span style=&quot;color: #abb2bf&quot;&gt; keep_flows;&lt;/span&gt;&lt;/div&gt;&lt;div&gt;&lt;span style=&quot;color: #abb2bf&quot;&gt;};&lt;/span&gt;&lt;/div&gt;&lt;/div&gt;" style="text;whiteSpace=wrap;html=1;" vertex="1" parent="1">
                    <mxGeometry x="20" y="519" width="250" height="170" as="geometry"/>
                </mxCell>
                <mxCell id="17" value="&lt;div style=&quot;color: rgb(171 , 178 , 191) ; background-color: rgb(40 , 44 , 52) ; font-family: &amp;#34;monaco&amp;#34; , &amp;#34;menlo&amp;#34; , &amp;#34;monaco&amp;#34; , &amp;#34;courier new&amp;#34; , monospace ; font-weight: normal ; font-size: 13px ; line-height: 20px&quot;&gt;&lt;div&gt;&lt;span style=&quot;color: #c678dd&quot;&gt;struct&lt;/span&gt;&lt;span style=&quot;color: #abb2bf&quot;&gt; &lt;/span&gt;&lt;span style=&quot;color: #e5c07b&quot;&gt;mask_cache_entry&lt;/span&gt;&lt;span style=&quot;color: #abb2bf&quot;&gt; {&lt;/span&gt;&lt;/div&gt;&lt;div&gt;&lt;span style=&quot;color: #abb2bf&quot;&gt;&amp;nbsp; &amp;nbsp; u32 skb_hash;&lt;/span&gt;&lt;/div&gt;&lt;div&gt;&lt;span style=&quot;color: #abb2bf&quot;&gt;&amp;nbsp; &amp;nbsp; u32 mask_index;&lt;/span&gt;&lt;/div&gt;&lt;div&gt;&lt;span style=&quot;color: #abb2bf&quot;&gt;};&lt;/span&gt;&lt;/div&gt;&lt;/div&gt;" style="text;whiteSpace=wrap;html=1;" vertex="1" parent="1">
                    <mxGeometry x="20" y="724" width="220" height="100" as="geometry"/>
                </mxCell>
                <mxCell id="21" style="edgeStyle=orthogonalEdgeStyle;rounded=0;orthogonalLoop=1;jettySize=auto;html=1;exitX=1;exitY=0.5;exitDx=0;exitDy=0;entryX=0;entryY=0.75;entryDx=0;entryDy=0;" edge="1" parent="1" source="19" target="10">
                    <mxGeometry relative="1" as="geometry">
                        <Array as="points">
                            <mxPoint x="400" y="884"/>
                            <mxPoint x="400" y="728"/>
                        </Array>
                    </mxGeometry>
                </mxCell>
                <mxCell id="19" value="&lt;div style=&quot;color: rgb(171 , 178 , 191) ; background-color: rgb(40 , 44 , 52) ; font-family: &amp;#34;monaco&amp;#34; , &amp;#34;menlo&amp;#34; , &amp;#34;monaco&amp;#34; , &amp;#34;courier new&amp;#34; , monospace ; font-weight: normal ; font-size: 13px ; line-height: 20px&quot;&gt;&lt;div&gt;&lt;span style=&quot;color: #c678dd&quot;&gt;struct&lt;/span&gt;&lt;span style=&quot;color: #abb2bf&quot;&gt; &lt;/span&gt;&lt;span style=&quot;color: #e5c07b&quot;&gt;mask_array&lt;/span&gt;&lt;span style=&quot;color: #abb2bf&quot;&gt; {&lt;/span&gt;&lt;/div&gt;&lt;div&gt;&lt;span style=&quot;color: #abb2bf&quot;&gt;&lt;/span&gt;&lt;span style=&quot;color: #c678dd&quot;&gt;&amp;nbsp; &amp;nbsp; struct&lt;/span&gt;&lt;span style=&quot;color: #abb2bf&quot;&gt; &lt;/span&gt;&lt;span style=&quot;color: #e5c07b&quot;&gt;rcu_head&lt;/span&gt;&lt;span style=&quot;color: #abb2bf&quot;&gt; &lt;/span&gt;&lt;span style=&quot;color: #e06c75&quot;&gt;rcu&lt;/span&gt;&lt;span style=&quot;color: #abb2bf&quot;&gt;;&lt;/span&gt;&lt;/div&gt;&lt;div&gt;&lt;span style=&quot;color: #abb2bf&quot;&gt;&lt;/span&gt;&lt;span style=&quot;color: #c678dd&quot;&gt;&amp;nbsp; &amp;nbsp; int&lt;/span&gt;&lt;span style=&quot;color: #abb2bf&quot;&gt; count, max;&lt;/span&gt;&lt;/div&gt;&lt;div&gt;&lt;span style=&quot;color: #abb2bf&quot;&gt;&lt;/span&gt;&lt;span style=&quot;color: #c678dd&quot;&gt;&amp;nbsp; &amp;nbsp; struct&lt;/span&gt;&lt;span style=&quot;color: #abb2bf&quot;&gt; &lt;/span&gt;&lt;span style=&quot;color: #e5c07b&quot;&gt;sw_flow_mask&lt;/span&gt;&lt;span style=&quot;color: #abb2bf&quot;&gt; &lt;/span&gt;&lt;span style=&quot;color: #e06c75&quot;&gt;__rcu&lt;/span&gt;&lt;span style=&quot;color: #abb2bf&quot;&gt; &lt;/span&gt;&lt;span style=&quot;color: #c678dd&quot;&gt;*&lt;/span&gt;&lt;span style=&quot;color: #abb2bf&quot;&gt;masks[];&lt;/span&gt;&lt;/div&gt;&lt;div&gt;&lt;span style=&quot;color: #abb2bf&quot;&gt;};&lt;/span&gt;&lt;/div&gt;&lt;/div&gt;" style="text;whiteSpace=wrap;html=1;" vertex="1" parent="1">
                    <mxGeometry x="20" y="829" width="310" height="110" as="geometry"/>
                </mxCell>
                <mxCell id="25" value="&lt;div style=&quot;color: rgb(171 , 178 , 191) ; background-color: rgb(40 , 44 , 52) ; font-family: &amp;#34;monaco&amp;#34; , &amp;#34;menlo&amp;#34; , &amp;#34;monaco&amp;#34; , &amp;#34;courier new&amp;#34; , monospace ; font-weight: normal ; font-size: 13px ; line-height: 20px&quot;&gt;&lt;div&gt;&lt;span style=&quot;color: #c678dd&quot;&gt;struct&lt;/span&gt;&lt;span style=&quot;color: #abb2bf&quot;&gt; &lt;/span&gt;&lt;span style=&quot;color: #e5c07b&quot;&gt;sw_flow_key_range&lt;/span&gt;&lt;span style=&quot;color: #abb2bf&quot;&gt; {&lt;/span&gt;&lt;/div&gt;&lt;div&gt;&lt;span style=&quot;color: #abb2bf&quot;&gt;&lt;/span&gt;&lt;span style=&quot;color: #c678dd&quot;&gt;&amp;nbsp; &amp;nbsp; unsigned&lt;/span&gt;&lt;span style=&quot;color: #abb2bf&quot;&gt; &lt;/span&gt;&lt;span style=&quot;color: #c678dd&quot;&gt;short&lt;/span&gt;&lt;span style=&quot;color: #abb2bf&quot;&gt; &lt;/span&gt;&lt;span style=&quot;color: #c678dd&quot;&gt;int&lt;/span&gt;&lt;span style=&quot;color: #abb2bf&quot;&gt; start;&lt;/span&gt;&lt;/div&gt;&lt;div&gt;&lt;span style=&quot;color: #abb2bf&quot;&gt;&lt;/span&gt;&lt;span style=&quot;color: #c678dd&quot;&gt;&amp;nbsp; &amp;nbsp; unsigned&lt;/span&gt;&lt;span style=&quot;color: #abb2bf&quot;&gt; &lt;/span&gt;&lt;span style=&quot;color: #c678dd&quot;&gt;short&lt;/span&gt;&lt;span style=&quot;color: #abb2bf&quot;&gt; &lt;/span&gt;&lt;span style=&quot;color: #c678dd&quot;&gt;int&lt;/span&gt;&lt;span style=&quot;color: #abb2bf&quot;&gt; end;&lt;/span&gt;&lt;/div&gt;&lt;div&gt;&lt;span style=&quot;color: #abb2bf&quot;&gt;};&lt;/span&gt;&lt;/div&gt;&lt;/div&gt;" style="text;whiteSpace=wrap;html=1;" vertex="1" parent="1">
                    <mxGeometry x="475" y="810" width="230" height="100" as="geometry"/>
                </mxCell>
            </root>
        </mxGraphModel>
    </diagram>
</mxfile>